# xmcd
#
# Track frame offsets:
#	150
#	13879
#	25953
#	37299
#	47996
#	59310
#	69976
#	81421
#	90276
#	103191
#	115399
#	128680
#	143778
#	157057
#	170413
#	184342
#	197081
#	208196
#
# Disc length: 2965 seconds
#
# Revision: 1
# Processed by: cddbd v1.4PL0 Copyright (c) Steve Scherf et al.
# Submitted via: audiograbber 1.80
#
DISCID=0c0b9312
DTITLE=big joe turner - blues legends
DYEAR=1900
DGENRE=
TTITLE0=back breaking blues
TTITLE1=empty pocket blues
TTITLE2=story to tell
TTITLE3=jumpin' tonight (midnight rocking')
TTITLE4=lucille
TTITLE5=love me baby (little bitty baby)
TTITLE6=blues jump the rabbit
TTITLE7=the sun is shining
TTITLE8=battle of the blues, part 1
TTITLE9=rebecca
TTITLE10=it's the same old story
TTITLE11=little bitty gal's blues
TTITLE12=s. k. blues part 2
TTITLE13=watch that jive
TTITLE14=doggin' the blues (low dog blues)
TTITLE15=battle of the blues, part 2
TTITLE16=morning glory
TTITLE17=nobody in mind
EXTD=
EXTT0=
EXTT1=
EXTT2=
EXTT3=
EXTT4=
EXTT5=
EXTT6=
EXTT7=
EXTT8=
EXTT9=
EXTT10=
EXTT11=
EXTT12=
EXTT13=
EXTT14=
EXTT15=
EXTT16=
EXTT17=
PLAYORDER=
